<?xml version="1.0" standalone="no"?>
<!DOCTYPE svg PUBLIC "-//W3C//DTD SVG 20010904//EN"
 "http://www.w3.org/TR/2001/REC-SVG-20010904/DTD/svg10.dtd">
<svg version="1.0" xmlns="http://www.w3.org/2000/svg"
 width="1024.000000pt" height="1024.000000pt" viewBox="0 0 1024.000000 1024.000000"
 preserveAspectRatio="xMidYMid meet">

<g transform="translate(0.000000,1024.000000) scale(0.100000,-0.100000)"
fill="#A6BBCC" stroke="none">
<path d="M5015 8410 c-241 -63 -487 -223 -609 -393 -57 -81 -126 -202 -126
-223 0 -13 -6 -12 -32 10 -50 40 -181 105 -251 123 -96 26 -274 23 -362 -5
-116 -36 -230 -107 -326 -202 -92 -91 -135 -158 -174 -267 -21 -60 -27 -68
-47 -65 -153 18 -272 8 -390 -32 -123 -43 -316 -196 -390 -310 -38 -58 -77
-160 -66 -171 3 -4 39 0 80 8 l74 14 105 105 c85 86 119 112 185 145 112 56
194 70 315 54 52 -7 125 -23 164 -37 161 -58 177 -57 183 9 3 29 -5 49 -33 92
-31 46 -36 61 -31 89 12 63 75 173 140 242 120 130 249 181 435 172 171 -9
283 -73 412 -234 58 -73 93 -96 127 -83 38 14 47 55 28 129 -22 86 -20 109 8
174 50 112 126 203 251 301 192 151 343 206 557 206 219 0 474 -105 636 -260
147 -141 255 -360 292 -594 9 -55 19 -84 36 -102 46 -49 96 -23 119 63 24 88
52 136 103 174 198 149 376 167 597 59 97 -48 181 -127 242 -230 56 -92 81
-171 98 -299 20 -152 42 -170 153 -122 53 22 86 30 132 30 76 0 108 -13 195
-84 76 -61 99 -67 139 -35 35 28 34 64 -6 123 -32 49 -127 135 -176 160 -45
22 -159 39 -220 32 l-57 -6 -18 72 c-58 243 -260 473 -492 562 -112 43 -231
59 -323 46 -97 -15 -223 -67 -329 -137 -76 -51 -103 -59 -103 -30 0 30 -57
155 -102 225 -107 164 -241 295 -388 382 -88 53 -238 110 -329 125 -120 21
-337 19 -426 -5z"/>
<path d="M5099 8086 c-101 -21 -137 -62 -118 -130 16 -60 43 -70 157 -60 53 4
120 7 147 5 126 -6 257 -63 363 -157 75 -67 117 -126 141 -198 41 -117 70
-147 122 -126 35 15 69 67 69 107 0 16 -18 67 -41 113 -133 276 -325 411 -639
450 -103 12 -129 12 -201 -4z"/>
<path d="M5481 6814 l-31 -26 0 -241 c1 -133 5 -275 9 -315 17 -143 117 -290
219 -320 55 -17 150 -15 204 4 73 24 122 74 170 171 l43 86 0 281 c0 155 -3
294 -8 309 -9 32 -60 67 -98 67 -14 0 -35 -10 -47 -23 -22 -23 -22 -29 -22
-323 0 -281 -1 -301 -20 -332 -59 -97 -185 -93 -244 8 -19 32 -21 59 -28 310
-5 151 -11 286 -13 298 -8 34 -50 72 -79 72 -13 0 -38 -12 -55 -26z"/>
<path d="M8345 6832 c-11 -2 -35 -15 -52 -29 -28 -20 -33 -30 -33 -66 0 -36
15 -68 90 -195 49 -84 108 -180 132 -214 l43 -61 5 -171 c5 -179 11 -203 54
-231 32 -22 71 -10 99 29 21 30 22 38 19 206 l-3 175 56 90 c32 49 95 142 141
207 46 64 87 131 90 148 12 57 -38 110 -102 110 -41 0 -89 -58 -168 -204 -39
-69 -78 -134 -89 -144 -18 -16 -20 -16 -34 3 -8 11 -44 79 -80 150 -92 183
-113 208 -168 197z"/>
<path d="M1580 6817 c-75 -17 -137 -55 -198 -122 -61 -66 -90 -137 -104 -258
-24 -189 25 -359 136 -473 43 -44 62 -56 125 -74 88 -27 160 -24 242 11 165
69 238 187 150 246 -52 35 -77 30 -131 -26 -38 -40 -57 -51 -101 -61 -65 -15
-123 -2 -167 35 -58 49 -99 198 -87 314 11 102 41 156 113 202 73 46 167 34
208 -27 38 -56 82 -94 107 -94 14 0 39 11 55 25 57 48 48 115 -27 197 -87 95
-200 132 -321 105z"/>
<path d="M3048 6812 c-58 -35 -59 -45 -56 -464 3 -413 4 -420 57 -455 33 -22
110 -20 253 6 69 12 126 29 160 48 72 38 152 122 190 201 29 58 33 77 36 168
8 216 -79 369 -262 460 -59 29 -90 37 -167 44 -135 13 -180 12 -211 -8z m318
-200 c112 -58 171 -195 144 -337 -23 -120 -116 -191 -266 -202 l-74 -6 0 234
c0 129 -3 258 -7 288 l-6 54 84 -5 c59 -3 96 -11 125 -26z"/>
<path d="M3934 6819 c-55 -16 -76 -49 -85 -136 -12 -116 -11 -661 2 -706 5
-21 24 -53 41 -72 l30 -35 210 0 c230 0 255 5 283 60 21 41 19 67 -10 95 -24
25 -26 25 -204 25 -203 0 -188 -7 -193 90 l-2 55 139 8 c77 4 150 12 163 17
23 10 62 65 62 88 0 8 -13 27 -29 43 l-29 29 -147 0 -146 0 3 133 3 132 165 1
c208 1 196 0 225 29 36 35 34 88 -4 126 l-29 29 -209 -1 c-114 0 -222 -5 -239
-10z"/>
<path d="M4701 6817 c-19 -7 -44 -25 -55 -40 -20 -28 -21 -38 -21 -415 0 -425
0 -422 62 -472 26 -20 35 -22 113 -16 201 14 316 60 405 159 77 86 113 163
121 258 21 249 -125 473 -338 518 -78 16 -250 21 -287 8z m275 -188 c42 -13
109 -72 138 -122 53 -91 53 -224 1 -312 -46 -79 -117 -116 -248 -130 l-66 -7
-3 288 c-2 159 -2 292 -1 295 3 9 141 -1 179 -12z"/>
<path d="M6317 6810 c-56 -44 -56 -47 -56 -431 1 -384 6 -449 40 -486 31 -32
78 -31 109 2 33 35 39 102 33 340 l-4 190 58 -110 c71 -133 135 -205 182 -205
41 0 77 19 117 62 37 38 105 142 124 187 7 17 15 31 19 31 3 0 5 -100 3 -222
-2 -209 -1 -225 18 -256 28 -46 62 -60 94 -38 57 36 57 40 54 485 l-3 409 -24
26 c-34 36 -88 36 -123 -1 -14 -16 -63 -98 -109 -183 -134 -253 -150 -280
-159 -280 -4 0 -61 102 -125 228 -65 125 -125 235 -134 245 -28 29 -81 32
-114 7z"/>
<path d="M7338 6814 c-57 -31 -58 -37 -58 -471 0 -426 -1 -421 50 -460 41 -33
111 3 123 65 3 15 3 124 1 242 l-5 215 51 -97 c88 -166 154 -221 226 -186 42
20 118 120 169 222 l45 90 0 -242 c0 -161 4 -251 11 -265 33 -63 81 -83 125
-52 44 30 46 52 42 467 -3 348 -5 397 -21 425 -34 63 -92 81 -141 42 -51 -40
-152 -212 -245 -416 -13 -29 -27 -53 -30 -53 -3 0 -56 103 -118 229 -93 192
-116 232 -142 245 -37 19 -48 19 -83 0z"/>
<path d="M2363 6802 c-110 -39 -197 -129 -244 -252 -27 -70 -36 -216 -19 -302
26 -135 123 -274 227 -325 46 -22 70 -27 137 -27 69 -1 90 3 144 28 110 51
208 180 232 305 24 126 0 288 -56 392 -87 158 -267 236 -421 181z m199 -198
c81 -52 116 -157 103 -304 -8 -88 -30 -136 -81 -178 -106 -87 -236 -52 -295
80 -19 44 -23 70 -24 153 0 90 3 106 28 158 58 117 171 156 269 91z"/>
<path d="M7436 5782 c-182 -177 -278 -222 -441 -209 -86 8 -115 27 -133 90
-26 93 -97 67 -190 -69 -130 -192 -344 -297 -607 -296 -191 0 -314 41 -438
146 -49 42 -66 63 -71 90 -9 46 -40 83 -77 91 -50 11 -75 -10 -118 -100 -57
-120 -139 -188 -336 -277 -114 -51 -184 -68 -310 -75 -126 -6 -224 6 -334 43
-217 72 -390 204 -480 364 -29 51 -44 66 -69 74 -45 13 -87 -8 -133 -67 -53
-67 -121 -119 -218 -168 -114 -57 -197 -73 -366 -72 -117 0 -156 5 -240 27
-210 55 -345 151 -462 328 -81 122 -150 178 -220 178 -33 0 -33 -98 1 -174 98
-221 353 -442 590 -510 331 -96 673 -40 927 151 39 29 74 53 79 53 5 0 25 -21
45 -47 85 -112 313 -267 468 -320 361 -122 806 -27 1074 230 l83 80 21 -27
c58 -74 228 -161 371 -190 97 -20 294 -21 385 -1 193 41 357 129 497 268 l48
48 40 -15 c21 -9 80 -21 131 -28 226 -28 456 66 617 253 62 72 110 156 110
194 0 40 -28 65 -71 65 -38 0 -48 -7 -173 -128z"/>
<path d="M1345 5780 c-9 -16 -13 -30 -11 -30 3 0 12 14 21 30 9 17 13 30 11
30 -3 0 -12 -13 -21 -30z"/>
<path d="M7782 5260 c-39 -24 -57 -59 -48 -94 12 -50 102 -47 161 6 39 33 43
52 19 86 -20 29 -86 30 -132 2z"/>
<path d="M6779 4977 c-62 -33 -109 -97 -109 -149 0 -56 51 -108 107 -108 78 0
193 100 193 169 0 28 -55 88 -88 95 -15 4 -34 9 -43 12 -8 2 -35 -6 -60 -19z"/>
<path d="M8351 4887 c-13 -21 -12 -21 5 -5 10 10 16 20 13 22 -3 3 -11 -5 -18
-17z"/>
<path d="M6140 4748 c-92 -11 -158 -42 -183 -85 -18 -32 -18 -34 0 -70 33 -68
111 -87 249 -62 152 28 229 126 155 200 -26 26 -36 29 -88 28 -32 -1 -92 -6
-133 -11z"/>
<path d="M4108 4588 c-31 -40 -53 -84 -62 -120 -11 -48 2 -31 49 62 25 50 43
90 41 90 -2 0 -15 -15 -28 -32z"/>
<path d="M4424 4556 c-89 -89 -3 -197 170 -213 64 -6 66 -5 101 30 29 29 35
42 35 79 0 37 -6 49 -33 76 -41 40 -104 62 -179 62 -55 0 -63 -3 -94 -34z"/>
<path d="M5163 4554 c-54 -27 -83 -63 -83 -101 0 -47 25 -87 70 -112 47 -26
90 -27 139 -1 53 27 81 65 81 110 0 90 -117 148 -207 104z"/>
</g>
</svg>
